<?xml version="1.0" encoding="UTF-8"?>
<svg xmlns="http://www.w3.org/2000/svg" xmlns:xlink="http://www.w3.org/1999/xlink" viewBox="0 0 64 64" width="64px" height="64px">
<g id="surface4385236">
<path style=" stroke:none;fill-rule:nonzero;fill:rgb(100%,100%,100%);fill-opacity:1;" d="M 32.523438 6 C 18.160156 6 6.515625 17.640625 6.515625 32 C 6.515625 46.359375 18.160156 58 32.523438 58 C 54.210938 58 59.097656 37.867188 57.066406 27.667969 L 32.515625 27.667969 L 32.515625 36.335938 L 49.277344 36.335938 C 47.351562 43.804688 40.589844 49.332031 32.515625 49.332031 C 22.945312 49.332031 15.183594 41.570312 15.183594 32 C 15.183594 22.429688 22.945312 14.667969 32.515625 14.667969 C 36.867188 14.667969 40.835938 16.285156 43.878906 18.933594 L 50.03125 12.78125 C 45.410156 8.566406 39.265625 6 32.523438 6 Z M 32.523438 6 "/>
</g>
</svg>
